<svg width="187" height="195" viewBox="0 0 187 195" fill="none" xmlns="http://www.w3.org/2000/svg">
<path d="M121.351 108.49C150.96 108.49 174.962 84.3239 174.962 54.5137C174.962 24.7034 150.96 0.537476 121.351 0.537476C91.7423 0.537476 67.7396 24.7034 67.7396 54.5137C67.7396 84.3239 91.7423 108.49 121.351 108.49Z" fill="white"/>
<path d="M107.174 4.88308C106.952 5.20894 107.609 6.30325 108.91 6.30325C110.211 6.30325 110.863 6.08439 111.405 7.50456C111.947 8.92473 111.189 13.7324 111.947 15.4809C112.706 17.2293 114.01 18.3212 114.987 17.3387C115.965 16.3563 115.855 13.7324 117.049 13.0782C118.243 12.4217 122.584 9.80017 122.801 7.61642C123.017 5.43023 121.497 3.79119 117.701 3.3559C113.903 2.91818 108.803 2.4829 107.174 4.88551V4.88308Z" fill="black"/>
<path d="M93.1497 53.8352C92.6414 54.1197 92.3374 54.6669 92.3642 55.2505C92.442 57.0841 91.7514 61.6486 90.302 63.1076C88.4563 64.9655 89.1372 68.3117 89.108 69.6638C89.0496 72.4068 89.3123 73.6276 92.2426 74.9408C95.1729 76.2515 96.3207 76.3269 96.5372 78.9484C96.7536 81.5698 97.0916 91.7007 97.9598 94.3222C98.8279 96.9437 100.674 101.207 101.649 102.189C102.626 103.172 104.905 103.719 103.495 100.003C102.084 96.2871 101.216 94.5411 102.843 92.4643C104.47 90.3876 107.184 85.5799 107.4 83.7244C107.616 81.8665 108.594 80.7747 109.462 80.5558C110.33 80.3369 112.176 79.6828 112.718 79.0262C113.261 78.3696 112.176 76.5141 111.85 74.8751C111.524 73.2361 111.524 72.2536 114.238 70.9429C116.952 69.6322 115.649 65.9163 111.96 64.9339C108.271 63.9515 105.99 61.8747 106.425 59.7979C106.86 57.7212 103.93 57.9401 102.194 56.9576C100.457 55.9752 100.508 54.431 98.5774 53.6941C95.9657 52.6995 94.1321 53.2856 93.1521 53.8376L93.1497 53.8352Z" fill="black"/>
<path d="M160.386 51.5444C159.472 50.1632 159.586 47.977 161.872 44.9835C163.667 42.6319 161.092 40.2828 159.902 39.383C159.684 39.2177 159.783 38.8748 160.053 38.8432C161.527 38.6754 164.941 39.1739 166.444 46.8243C168.387 56.7217 169.187 53.2686 170.216 52.1183C171.244 50.9681 169.321 48.8184 171.244 46.5933C172.458 45.1926 173.073 43.1474 173.387 41.4792C169.52 25.7795 158.832 12.7937 144.67 5.89471C144.692 7.61886 144.278 13.6205 137.294 11.145C137.294 11.145 132.951 9.07309 133.979 17.475C135.008 25.8768 138.551 16.8986 139.237 16.5533C139.923 16.208 141.752 15.7484 140.951 21.3877C140.951 21.3877 140.837 23.3453 137.294 23C133.751 22.6547 133.065 24.3812 133.065 25.3029C133.065 26.2245 133.408 28.6393 131.465 30.3659C129.522 32.0925 130.093 36.5816 132.722 35.0836C135.351 33.588 137.18 28.8679 139.58 28.4083C141.98 27.9487 144.152 31.0565 146.438 30.2492C148.723 29.4443 147.695 25.5315 148.838 25.5315C149.981 25.5315 152.381 27.8344 152.038 29.5585C151.695 31.2851 148.152 32.0901 149.066 34.1619C149.981 36.2338 151.924 35.5432 152.495 36.9245C153.067 38.3057 149.638 39.9156 146.895 38.1914C144.152 36.4648 143.695 38.9964 142.323 37.8461C140.951 36.6959 140.837 34.2787 138.894 35.0836C136.951 35.8885 135.808 37.5008 133.294 38.651C130.779 39.8013 128.722 41.2993 128.722 42.9091C128.722 44.519 129.636 46.2456 129.179 48.7795C128.722 51.311 127.922 58.2173 136.151 56.836C144.383 55.4548 143.352 59.7128 143.352 60.1725C143.352 60.6321 143.237 66.6167 144.037 67.6527C144.837 68.6886 146.666 71.6797 144.037 75.5925C141.409 79.5053 142.437 88.2524 144.837 87.1022C147.238 85.9519 149.638 81.4628 152.609 79.1624C155.581 76.8594 159.698 66.8478 157.981 63.7399C156.267 60.6321 160.382 58.1006 160.953 56.0287C161.524 53.9568 161.296 52.9208 160.382 51.5396L160.386 51.5444Z" fill="black"/>
<path d="M82.6443 17.1685C82.6881 19.0848 82.35 21.1713 81.2363 23.1264C77.8731 29.026 77.9801 31.9757 77.6542 37.8753C77.3284 43.7748 84.7332 54.1756 86.5789 55.2675C88.4247 56.3594 88.7092 53.7622 88.7092 51.6855C88.7092 49.6087 87.9213 47.1186 86.8367 44.716C85.7521 42.3133 85.7521 40.7837 86.078 39.7989C86.4038 38.8164 87.7049 38.4881 88.573 39.4705C89.4412 40.453 91.5276 41.326 92.5295 40.7108C93.7625 39.9545 93.2834 36.9974 93.7163 36.015C94.1516 35.0325 96.5372 34.3759 97.5147 32.2992C98.4923 30.2224 100.119 29.3494 102.072 28.3645C104.025 27.3821 105.761 26.9444 106.087 26.2878C106.413 25.6312 105.977 24.1016 106.52 22.3556C107.062 20.6071 108.365 18.5303 107.823 17.6573C107.281 16.7843 105.652 15.3641 102.614 17.5479C99.5769 19.7317 98.8158 19.7341 97.9476 18.0951C97.0795 16.456 98.9252 12.1955 102.724 12.1955C106.522 12.1955 107.281 10.8848 107.39 9.90232C107.5 8.91988 106.306 7.82557 105.002 7.6067C103.699 7.38784 103.482 8.15385 98.057 10.3376C94.4361 11.7967 91.2504 11.4538 89.5336 11.0647C87.0677 12.8983 84.7624 14.9386 82.6467 17.1612L82.6443 17.1685Z" fill="black"/>
<path d="M165.508 79.0967C165.418 81.5431 163.168 83.8995 161.819 84.7141C160.469 85.5288 158.4 86.7982 158.4 88.8822C158.4 90.2246 158.363 91.939 158.675 93.2595C165.819 86.2826 167.232 84.933 171.322 74.413C171.111 73.0755 165.6 76.6527 165.51 79.0991L165.508 79.0967Z" fill="black"/>
<path d="M121.351 109.027C91.4936 109.027 67.2 84.5731 67.2 54.5136C67.2 24.4542 91.4912 0 121.351 0C151.211 0 175.503 24.4542 175.503 54.5136C175.503 84.5731 151.211 109.027 121.351 109.027ZM121.351 1.07728C92.087 1.07728 68.2773 25.0499 68.2773 54.5136C68.2773 83.9773 92.087 107.95 121.351 107.95C150.616 107.95 174.425 83.9773 174.425 54.5136C174.425 25.0499 150.616 1.07728 121.351 1.07728Z" fill="black"/>
<path d="M86.348 105.778C85.1466 107.544 85.6719 109.956 87.4958 111.068C97.3786 117.077 108.964 120.535 121.351 120.535C157.568 120.535 186.93 90.976 186.93 54.5136C186.93 33.2475 176.942 14.3282 161.432 2.25428C159.742 0.938677 157.293 1.31804 156.075 3.0811C154.951 4.70797 155.297 6.92333 156.858 8.1368C170.637 18.844 179.51 35.6356 179.51 54.5136C179.51 86.8517 153.473 113.066 121.351 113.066C110.379 113.066 100.119 110.007 91.3623 104.691C89.6674 103.663 87.4641 104.139 86.348 105.778Z" fill="black"/>
<path d="M125.103 116.529H117.738V141.28H125.103V116.529Z" fill="black"/>
<path d="M121.395 146.068C133.9 146.068 144.037 143.044 144.037 139.313C144.037 135.582 133.9 132.557 121.395 132.557C108.89 132.557 98.7524 135.582 98.7524 139.313C98.7524 143.044 108.89 146.068 121.395 146.068Z" fill="black"/>
<path d="M73.7736 194.15L35.7035 188.038L55.0942 136.679L93.1643 142.791L73.7736 194.15Z" fill="black"/>
<path d="M30.5556 186.42L0 174.2L18.0488 126.317L48.4198 139.066L30.5556 186.42Z" fill="black"/>
<path d="M35.776 188.054C33.9985 188.865 31.491 188.135 30.5555 186.42L48.5338 138.405C49.407 140.161 51.898 140.966 53.7087 140.211L35.776 188.054Z" fill="black"/>
<path d="M36.7033 185.491C34.9258 186.302 32.4182 185.572 31.4828 183.856L49.2744 136.372C50.1476 138.129 52.6386 138.934 54.4493 138.179L36.7033 185.491Z" fill="black"/>
<path d="M35.1227 186.279C33.4925 186.279 31.8249 185.445 31.0803 184.076C31.016 183.96 31.0077 183.821 31.0533 183.695L48.845 136.21C48.9093 136.038 49.069 135.922 49.2515 135.914C49.4444 135.903 49.6041 136.005 49.687 136.169C50.4296 137.66 52.6592 138.432 54.2729 137.755C54.4429 137.685 54.6358 137.722 54.7686 137.849C54.9013 137.975 54.9449 138.168 54.8806 138.34L37.1346 185.653C37.091 185.767 37.006 185.858 36.8961 185.91C36.3444 186.161 35.7387 186.279 35.1269 186.279H35.1227ZM31.9908 183.813C32.8329 185.105 34.8406 185.721 36.3423 185.147L53.7025 138.865C52.1386 139.116 50.4088 138.513 49.3946 137.363L31.9908 183.815V183.813Z" fill="black"/>
<path d="M2.60294 172.555L31.4536 184.141L33.4697 182.432L49.7348 139.031L46.3166 137.687L19.7018 123.245L1.72766 165.974L2.60294 172.555Z" fill="white"/>
<path d="M31.4537 184.599C31.3957 184.599 31.3376 184.589 31.2816 184.566L2.43088 172.98C2.2774 172.918 2.16955 172.779 2.14673 172.615L1.27147 166.034C1.2611 165.953 1.27146 165.87 1.30257 165.795L19.2788 123.067C19.3286 122.946 19.4281 122.855 19.5505 122.812C19.6729 122.768 19.8077 122.778 19.9218 122.841L46.5117 137.27L49.9028 138.604C50.1351 138.695 50.2534 138.956 50.1642 139.193L33.8991 182.593C33.8721 182.666 33.8265 182.732 33.7664 182.782L31.7503 184.489C31.6653 184.56 31.5595 184.597 31.4537 184.597V184.599ZM3.02201 172.229L31.3687 183.612L33.0819 182.16L49.1458 139.294L46.1487 138.116C46.1321 138.11 46.1135 138.102 46.0989 138.094L19.93 123.892L2.20066 166.038L3.02407 172.229H3.02201Z" fill="black"/>
<path d="M1.76501 165.795C1.70486 165.955 1.78575 166.133 1.94545 166.189C4.45926 167.079 22.5848 173.596 28.9938 178.796L33.4717 182.429L50.4565 137.11L46.8746 134.091C41.1936 129.299 25.3268 123.224 20.2348 121.347C19.3534 121.022 18.3765 121.472 18.0467 122.351L1.76501 165.793V165.795Z" fill="white"/>
<path d="M33.4697 182.892C33.366 182.892 33.2623 182.857 33.1814 182.79L28.7034 179.157C22.3172 173.973 3.87436 167.363 1.79196 166.625C1.597 166.556 1.44352 166.415 1.35641 166.229C1.2693 166.042 1.261 165.831 1.3336 165.636L17.6153 122.191C18.0322 121.078 19.2787 120.507 20.3925 120.918C25.2168 122.698 41.4052 128.88 47.1691 133.742L50.751 136.762C50.9004 136.886 50.9522 137.092 50.8859 137.274L33.9011 182.593C33.8492 182.732 33.7331 182.836 33.592 182.875C33.5526 182.886 33.5132 182.892 33.4717 182.892H33.4697ZM2.24827 165.812C4.95497 166.774 22.9104 173.27 29.2821 178.443L33.2643 181.675L49.9111 137.256L46.578 134.443C40.9281 129.679 24.8642 123.546 20.0751 121.779C19.4342 121.542 18.7166 121.872 18.476 122.513L2.25034 165.81L2.24827 165.812Z" fill="black"/>
<path d="M33.4697 182.432L36.9667 185.431L71.9131 191.168L89.1779 144.31L86.662 139.969C86.5957 139.852 86.4671 139.788 86.3343 139.803C84.9074 139.973 76.8204 140.877 73.4646 140C68.3166 138.654 62.9032 138.691 57.6973 139.788L51.0145 141.196L33.4718 182.434L33.4697 182.432Z" fill="white"/>
<path d="M71.9131 191.626C71.8882 191.626 71.8633 191.626 71.8384 191.62L36.892 185.883C36.809 185.868 36.7322 185.833 36.6679 185.779L33.171 182.78C33.0196 182.649 32.9698 182.436 33.0486 182.251L50.5914 141.014C50.6494 140.875 50.7718 140.775 50.9191 140.744L57.6018 139.336C63.0878 138.181 68.6132 138.255 73.5807 139.554C76.9055 140.423 85.3304 139.458 86.2804 139.344C86.5977 139.307 86.9005 139.46 87.0602 139.734L89.5761 144.075C89.6446 144.194 89.657 144.337 89.6093 144.465L72.3466 191.323C72.2802 191.506 72.106 191.624 71.9152 191.624L71.9131 191.626ZM37.1678 184.999L71.6124 190.653L88.6697 144.353L86.3032 140.269C84.5464 140.477 76.7063 141.323 73.3463 140.446C68.5157 139.183 63.1376 139.112 57.7885 140.238L51.3401 141.597L34.0235 182.303L37.1657 184.999H37.1678Z" fill="black"/>
<path d="M49.3075 180.337C51.5807 180.44 53.8457 180.756 56.0732 181.283C63.4031 183.019 69.6627 184.918 69.6627 184.918L86.4795 140.045C86.5708 139.805 86.4401 139.537 86.1912 139.462C84.6211 138.996 79.1787 137.407 72.9751 135.934C67.711 134.686 62.2333 134.628 56.9382 135.744L50.4504 137.11L33.4656 182.429L40.2707 181.042C43.2512 180.434 46.2877 180.198 49.3075 180.335V180.337Z" fill="white"/>
<path d="M69.6607 185.377C69.6171 185.377 69.5715 185.371 69.528 185.356C69.528 185.356 68.4888 185.041 66.7673 184.551C60.2111 182.687 53.4101 181.739 46.5573 181.733L41.1211 181.728C40.8681 181.728 40.6627 181.523 40.6627 181.268C40.6627 181.013 40.8681 180.81 41.1211 180.81L46.5594 180.814C53.4973 180.82 60.3812 181.778 67.0204 183.668C68.1114 183.979 68.9286 184.217 69.3849 184.354L86.0502 139.884C84.5382 139.45 79.0813 137.855 72.8797 136.385C67.7235 135.163 62.2458 135.096 57.0336 136.194L50.7926 137.509L33.897 182.591C33.8078 182.83 33.5424 182.948 33.3059 182.861C33.0674 182.772 32.9492 182.508 33.0363 182.27L50.0211 136.951C50.0771 136.803 50.2036 136.696 50.3571 136.662L56.8448 135.296C62.1877 134.169 67.8065 134.238 73.0913 135.491C79.3177 136.967 84.7954 138.566 86.3261 139.023C86.5646 139.093 86.7637 139.261 86.8757 139.483C86.9877 139.707 87.0002 139.971 86.9131 140.205L70.0963 185.078C70.0278 185.261 69.8536 185.377 69.6669 185.377H69.6607Z" fill="black"/>
<path d="M78.1126 145.036C78.0711 145.036 78.0296 145.029 77.9861 145.017L76.9449 144.718C75.0284 144.167 73.6429 143.768 69.8888 142.878C64.7388 141.657 59.2632 141.593 54.053 142.69C53.8062 142.742 53.5615 142.584 53.5096 142.335C53.4578 142.086 53.6154 141.844 53.8643 141.792C59.2051 140.665 64.8218 140.734 70.1024 141.985C73.8773 142.881 75.2711 143.281 77.2 143.837L78.2391 144.135C78.4838 144.206 78.6249 144.459 78.5544 144.704C78.4963 144.905 78.3117 145.038 78.1126 145.038V145.036Z" fill="black"/>
<path d="M76.696 150.727C76.6545 150.727 76.611 150.721 76.5695 150.708C74.12 150.009 72.3757 149.547 67.9101 148.489C62.7601 147.267 57.2845 147.203 52.0744 148.3C51.8276 148.352 51.5828 148.194 51.531 147.945C51.4791 147.697 51.6368 147.454 51.8857 147.402C57.2265 146.276 62.8431 146.344 68.1217 147.595C72.6038 148.657 74.3564 149.124 76.8205 149.825C77.0652 149.895 77.2063 150.148 77.1357 150.393C77.0777 150.594 76.8931 150.727 76.694 150.727H76.696Z" fill="black"/>
<path d="M73.8503 155.978C73.8088 155.978 73.7652 155.972 73.7238 155.96C71.7866 155.408 70.6769 155.147 68.2481 154.576C67.5284 154.408 66.6946 154.211 65.6887 153.973C62.9675 153.328 60.1675 153 57.3612 153C57.0957 153 56.8945 152.797 56.8945 152.542C56.8945 152.287 57.1102 152.083 57.3612 152.083C60.238 152.083 63.1106 152.419 65.9003 153.081C66.9041 153.319 67.7379 153.514 68.4576 153.682C70.9009 154.255 72.0168 154.518 73.9748 155.076C74.2195 155.147 74.3605 155.4 74.29 155.645C74.2319 155.846 74.0473 155.978 73.8482 155.978H73.8503Z" fill="black"/>
<path d="M72.4566 161.884C72.4151 161.884 72.3715 161.877 72.33 161.865C71.7617 161.703 71.2266 161.545 70.6873 161.388C68.8414 160.846 66.9332 160.286 63.5213 159.478C58.3714 158.256 52.8957 158.192 47.6856 159.289C47.4388 159.341 47.194 159.183 47.1422 158.934C47.0903 158.685 47.248 158.443 47.4969 158.391C52.8397 157.264 58.4543 157.333 63.735 158.584C67.1697 159.399 69.0903 159.961 70.9466 160.506C71.4838 160.664 72.0189 160.822 72.5831 160.981C72.8278 161.052 72.9689 161.305 72.8983 161.55C72.8403 161.751 72.6557 161.884 72.4566 161.884Z" fill="black"/>
<path d="M67.6654 165.843C67.626 165.843 67.5866 165.839 67.5471 165.828C65.4357 165.268 63.3741 164.75 61.4161 164.285C56.2661 163.064 50.7905 162.999 45.5804 164.097C45.3336 164.148 45.0888 163.991 45.037 163.742C44.9851 163.493 45.1427 163.25 45.3916 163.198C50.7324 162.072 56.3491 162.141 61.6277 163.391C63.5939 163.858 65.6639 164.379 67.7836 164.941C68.0283 165.005 68.1756 165.258 68.1092 165.503C68.0553 165.708 67.8686 165.845 67.6654 165.845V165.843Z" fill="black"/>
<path d="M59.0662 169.307C59.035 169.307 59.0018 169.303 58.9707 169.296C53.997 168.234 48.9362 168.232 43.9294 169.286C43.6826 169.338 43.4378 169.18 43.386 168.931C43.3341 168.682 43.4917 168.44 43.7406 168.388C48.874 167.307 54.0613 167.309 59.1636 168.398C59.4125 168.452 59.5701 168.695 59.5162 168.944C59.4706 169.159 59.2798 169.307 59.0682 169.307H59.0662Z" fill="black"/>
<path d="M65.1516 177.043C65.1101 177.043 65.0665 177.037 65.0251 177.024C62.6938 176.359 61.5924 176.097 57.942 175.232L57.0419 175.019C51.8919 173.797 46.4162 173.733 41.2061 174.83C40.9593 174.882 40.7145 174.724 40.6627 174.475C40.6108 174.226 40.7685 173.984 41.0174 173.932C46.3582 172.806 51.9748 172.874 57.2555 174.125L58.1556 174.338C61.8206 175.208 62.9281 175.469 65.2802 176.141C65.5249 176.211 65.666 176.464 65.5954 176.709C65.5374 176.91 65.3528 177.043 65.1537 177.043H65.1516Z" fill="black"/>
<path d="M33.4924 135.265C33.4136 135.265 33.3348 135.244 33.2622 135.202C28.7199 132.57 24.0345 130.484 21.4025 129.496C21.166 129.407 21.0457 129.142 21.1328 128.905C21.222 128.669 21.4854 128.549 21.724 128.636C24.3892 129.635 29.1306 131.745 33.7205 134.406C33.9404 134.532 34.0151 134.814 33.8885 135.032C33.8035 135.179 33.65 135.26 33.4903 135.26L33.4924 135.265Z" fill="black"/>
<path d="M39.9035 149.752C39.7687 149.752 39.6339 149.692 39.5447 149.578C36.2614 145.452 30.8003 142.549 25.9365 140.151C25.7084 140.039 25.615 139.763 25.727 139.537C25.839 139.309 26.1149 139.216 26.341 139.328C31.2939 141.769 36.8608 144.733 40.2623 149.005C40.42 149.204 40.3868 149.493 40.1897 149.65C40.1047 149.717 40.0051 149.75 39.9035 149.75V149.752Z" fill="black"/>
<path d="M37.2072 157.474C37.0931 157.474 36.977 157.43 36.8878 157.345C32.6317 153.239 28.7138 151.148 24.0325 148.839C20.8861 147.288 19.0588 146.504 17.2896 145.745C16.7732 145.523 16.2609 145.303 15.7216 145.067C15.4893 144.965 15.3835 144.693 15.4852 144.461C15.5868 144.229 15.8585 144.123 16.0908 144.225C16.628 144.461 17.1382 144.679 17.6526 144.899C19.4322 145.662 21.2719 146.452 24.439 148.014C29.1929 150.358 33.1731 152.486 37.5245 156.684C37.7071 156.86 37.7133 157.15 37.537 157.333C37.4478 157.426 37.3275 157.474 37.2072 157.474Z" fill="black"/>
<path d="M35.5624 163.008C35.4462 163.008 35.3301 162.964 35.2409 162.877C31.578 159.278 28.3736 157.727 24.3146 155.765C23.7255 155.481 23.1219 155.188 22.4997 154.881C20.6932 153.989 18.7726 153.075 16.7918 152.162C16.5616 152.056 16.4599 151.783 16.5678 151.552C16.6736 151.322 16.9474 151.221 17.1776 151.328C19.1646 152.243 21.0935 153.162 22.9083 154.058C23.5285 154.363 24.13 154.655 24.7169 154.939C28.6868 156.86 32.1152 158.519 35.8859 162.224C36.0664 162.402 36.0685 162.692 35.8922 162.873C35.803 162.964 35.6827 163.01 35.5645 163.01L35.5624 163.008Z" fill="black"/>
<path d="M33.5424 168.243C33.4242 168.243 33.308 168.197 33.2168 168.108C30.0268 164.918 26.5112 163.159 22.7903 161.299C21.9669 160.886 21.1372 160.471 20.3076 160.04C20.0836 159.921 19.9965 159.646 20.1126 159.419C20.2308 159.195 20.5088 159.108 20.7328 159.224C21.5582 159.656 22.3817 160.067 23.2009 160.477C26.9903 162.373 30.5702 164.163 33.8659 167.459C34.0443 167.637 34.0443 167.929 33.8659 168.108C33.7768 168.197 33.6585 168.243 33.5424 168.243Z" fill="black"/>
<path d="M31.8 174.104C31.6652 174.104 31.5304 174.044 31.4412 173.93C28.021 169.632 15.873 164.474 10.4306 162.792C10.1879 162.717 10.0531 162.46 10.1278 162.217C10.2024 161.975 10.4596 161.84 10.7023 161.915C16.236 163.626 28.6142 168.904 32.1588 173.357C32.3165 173.557 32.2833 173.845 32.0862 174.002C32.0012 174.069 31.9016 174.102 31.8 174.102V174.104Z" fill="black"/>
<path d="M71.9131 191.626C71.7264 191.626 71.5522 191.512 71.4838 191.327L69.1981 185.232C69.1089 184.995 69.2292 184.73 69.4677 184.641C69.7021 184.551 69.9697 184.672 70.0589 184.91L72.3445 191.006C72.4337 191.242 72.3134 191.508 72.0749 191.597C72.021 191.618 71.967 191.626 71.9131 191.626Z" fill="black"/>
<path d="M27.7195 58.1058C27.6921 57.9537 27.7201 57.7917 27.8121 57.6525C28.0033 57.367 28.3888 57.2892 28.6738 57.4777L32.2116 59.8238C32.4966 60.0123 32.5744 60.3978 32.3865 60.6856C32.1952 60.9711 31.8097 61.0489 31.5247 60.8604L27.9869 58.5142C27.8412 58.4177 27.7483 58.2661 27.7195 58.1058Z" fill="black"/>
<path d="M15.3375 49.8956C15.3102 49.7435 15.3381 49.5815 15.4301 49.4423C15.6213 49.1568 16.0069 49.079 16.2919 49.2674L19.8297 51.6136C20.1151 51.8049 20.193 52.1904 20.0045 52.4754C19.8133 52.7609 19.4277 52.8387 19.1427 52.6502L15.6049 50.3041C15.4592 50.2076 15.3663 50.0559 15.3375 49.8956Z" fill="black"/>
<path d="M26.2488 50.8594C26.221 50.7046 26.2512 50.5394 26.3487 50.3992L28.7102 46.9471C28.9047 46.6639 29.2913 46.5915 29.5745 46.786C29.8577 46.9805 29.93 47.367 29.7355 47.6503L27.374 51.1024C27.1795 51.3856 26.7929 51.4579 26.5097 51.2634C26.3667 51.1664 26.2776 51.0198 26.2488 50.8594Z" fill="black"/>
<path d="M17.9817 62.9406C17.9539 62.7858 17.9841 62.6206 18.0816 62.4803L20.4432 59.0282C20.6377 58.745 21.0242 58.6727 21.3074 58.8672C21.5906 59.0617 21.6629 59.4482 21.4684 59.7314L19.1068 63.1835C18.9123 63.4668 18.5258 63.5391 18.2426 63.3446C18.0996 63.2476 18.0105 63.1009 17.9817 62.9406Z" fill="black"/>
<path d="M44.6469 99.4654C44.1124 96.4911 46.0987 93.6343 49.0731 93.0997C52.0475 92.5652 54.9042 94.5515 55.4388 97.5259C55.9734 100.5 53.987 103.357 51.0127 103.892C48.0383 104.426 45.1815 102.44 44.6469 99.4654ZM54.2142 97.746C53.8008 95.4461 51.5931 93.911 49.2932 94.3243C46.9933 94.7377 45.4582 96.9455 45.8715 99.2454C46.2849 101.545 48.4927 103.08 50.7926 102.667C53.0925 102.254 54.6275 100.046 54.2142 97.746Z" fill="black"/>
<path d="M169.007 177.863C169.078 177.791 169.175 177.744 169.284 177.74C169.508 177.733 169.696 177.909 169.704 178.132L169.801 180.905C169.809 181.128 169.633 181.316 169.409 181.325C169.184 181.332 168.996 181.157 168.988 180.934L168.892 178.161C168.888 178.046 168.933 177.939 169.007 177.863Z" fill="black"/>
<path d="M168.668 168.158C168.739 168.086 168.836 168.039 168.945 168.035C169.169 168.029 169.357 168.204 169.365 168.427L169.462 171.2C169.469 171.425 169.293 171.613 169.07 171.621C168.845 171.627 168.658 171.452 168.649 171.229L168.553 168.456C168.549 168.342 168.594 168.235 168.668 168.158Z" fill="black"/>
<path d="M172.302 174.327C172.374 174.254 172.473 174.207 172.585 174.206L175.318 174.15C175.543 174.145 175.728 174.323 175.732 174.548C175.736 174.773 175.558 174.958 175.334 174.962L172.601 175.018C172.376 175.022 172.191 174.844 172.186 174.62C172.184 174.507 172.228 174.404 172.302 174.327Z" fill="black"/>
<path d="M162.736 174.522C162.807 174.448 162.907 174.401 163.018 174.4L165.752 174.344C165.976 174.34 166.162 174.518 166.166 174.742C166.17 174.967 165.992 175.152 165.767 175.157L163.034 175.212C162.81 175.217 162.624 175.039 162.62 174.814C162.617 174.701 162.661 174.598 162.736 174.522Z" fill="black"/>
</svg>
